<svg width="198" height="198" viewBox="0 0 198 680" fill="none" xmlns="http://www.w3.org/2000/svg">
<g filter="url(#filter0_d_2_1009)">
<g filter="url(#filter1_d_2_1009)">
<path d="M129.265 328.648L129.265 393.509L158 361.077L129.265 328.648Z" fill="#00A3F4"/>
<path d="M130 64C130 41.9086 112.091 24 90 24H0V656H90C112.091 656 130 638.091 130 616V64Z" fill="#00A3F4"/>
</g>
<path d="M70.967 123.24C72.6343 123.595 73.9737 124.429 74.985 125.741C75.9963 127.026 76.502 128.502 76.502 130.169C76.502 132.574 75.6547 134.488 73.96 135.909C72.2927 137.303 69.9557 138 66.949 138H53.542V109.218H66.498C69.4227 109.218 71.705 109.888 73.345 111.227C75.0123 112.566 75.846 114.384 75.846 116.68C75.846 118.375 75.395 119.782 74.493 120.903C73.6183 122.024 72.443 122.803 70.967 123.24ZM60.553 120.862H65.145C66.293 120.862 67.1677 120.616 67.769 120.124C68.3977 119.605 68.712 118.853 68.712 117.869C68.712 116.885 68.3977 116.133 67.769 115.614C67.1677 115.095 66.293 114.835 65.145 114.835H60.553V120.862ZM65.719 132.342C66.8943 132.342 67.7963 132.082 68.425 131.563C69.081 131.016 69.409 130.237 69.409 129.226C69.409 128.215 69.0673 127.422 68.384 126.848C67.728 126.274 66.8123 125.987 65.637 125.987H60.553V132.342H65.719ZM60.553 180.935C61.373 179.678 62.398 178.694 63.628 177.983C64.858 177.245 66.2247 176.876 67.728 176.876V184.297H65.801C64.0517 184.297 62.7397 184.68 61.865 185.445C60.9903 186.183 60.553 187.495 60.553 189.381V200H53.542V177.122H60.553V180.935ZM63.956 262.328C61.7147 262.328 59.692 261.85 57.888 260.893C56.1113 259.936 54.7037 258.57 53.665 256.793C52.6537 255.016 52.148 252.939 52.148 250.561C52.148 248.21 52.6673 246.147 53.706 244.37C54.7447 242.566 56.166 241.186 57.97 240.229C59.774 239.272 61.7967 238.794 64.038 238.794C66.2793 238.794 68.302 239.272 70.106 240.229C71.91 241.186 73.3313 242.566 74.37 244.37C75.4087 246.147 75.928 248.21 75.928 250.561C75.928 252.912 75.395 254.989 74.329 256.793C73.2903 258.57 71.8553 259.936 70.024 260.893C68.22 261.85 66.1973 262.328 63.956 262.328ZM63.956 256.26C65.2953 256.26 66.4297 255.768 67.359 254.784C68.3157 253.8 68.794 252.392 68.794 250.561C68.794 248.73 68.3293 247.322 67.4 246.338C66.498 245.354 65.3773 244.862 64.038 244.862C62.6713 244.862 61.537 245.354 60.635 246.338C59.733 247.295 59.282 248.702 59.282 250.561C59.282 252.392 59.7193 253.8 60.594 254.784C61.496 255.768 62.6167 256.26 63.956 256.26ZM52.148 312.561C52.148 310.183 52.6263 308.106 53.583 306.329C54.567 304.552 55.92 303.186 57.642 302.229C59.3913 301.272 61.3867 300.794 63.628 300.794C66.498 300.794 68.8897 301.546 70.803 303.049C72.7437 304.552 74.0147 306.671 74.616 309.404H67.154C66.5253 307.655 65.309 306.78 63.505 306.78C62.2203 306.78 61.1953 307.286 60.43 308.297C59.6647 309.281 59.282 310.702 59.282 312.561C59.282 314.42 59.6647 315.855 60.43 316.866C61.1953 317.85 62.2203 318.342 63.505 318.342C65.309 318.342 66.5253 317.467 67.154 315.718H74.616C74.0147 318.397 72.7437 320.501 70.803 322.032C68.8623 323.563 66.4707 324.328 63.628 324.328C61.3867 324.328 59.3913 323.85 57.642 322.893C55.92 321.936 54.567 320.57 53.583 318.793C52.6263 317.016 52.148 314.939 52.148 312.561ZM67.605 362.876C70.229 362.876 72.3337 363.751 73.919 365.5C75.5043 367.222 76.297 369.6 76.297 372.634V386H69.327V373.577C69.327 372.046 68.9307 370.857 68.138 370.01C67.3453 369.163 66.2793 368.739 64.94 368.739C63.6007 368.739 62.5347 369.163 61.742 370.01C60.9493 370.857 60.553 372.046 60.553 373.577V386H53.542V355.66H60.553V366.197C61.2637 365.186 62.234 364.379 63.464 363.778C64.694 363.177 66.0743 362.876 67.605 362.876ZM76.133 425.122V448H69.122V444.884C68.4113 445.895 67.441 446.715 66.211 447.344C65.0083 447.945 63.669 448.246 62.193 448.246C60.4437 448.246 58.8993 447.863 57.56 447.098C56.2207 446.305 55.182 445.171 54.444 443.695C53.706 442.219 53.337 440.483 53.337 438.488V425.122H60.307V437.545C60.307 439.076 60.7033 440.265 61.496 441.112C62.2887 441.959 63.3547 442.383 64.694 442.383C66.0607 442.383 67.1403 441.959 67.933 441.112C68.7257 440.265 69.122 439.076 69.122 437.545V425.122H76.133ZM60.553 490.935C61.373 489.678 62.398 488.694 63.628 487.983C64.858 487.245 66.2247 486.876 67.728 486.876V494.297H65.801C64.0517 494.297 62.7397 494.68 61.865 495.445C60.9903 496.183 60.553 497.495 60.553 499.381V510H53.542V487.122H60.553V490.935ZM75.108 560.192C75.108 560.848 75.067 561.531 74.985 562.242H59.118C59.2273 563.663 59.6783 564.757 60.471 565.522C61.291 566.26 62.2887 566.629 63.464 566.629C65.2133 566.629 66.4297 565.891 67.113 564.415H74.575C74.1923 565.918 73.4953 567.271 72.484 568.474C71.5 569.677 70.2563 570.62 68.753 571.303C67.2497 571.986 65.5687 572.328 63.71 572.328C61.4687 572.328 59.4733 571.85 57.724 570.893C55.9747 569.936 54.608 568.57 53.624 566.793C52.64 565.016 52.148 562.939 52.148 560.561C52.148 558.183 52.6263 556.106 53.583 554.329C54.567 552.552 55.9337 551.186 57.683 550.229C59.4323 549.272 61.4413 548.794 63.71 548.794C65.924 548.794 67.892 549.259 69.614 550.188C71.336 551.117 72.6753 552.443 73.632 554.165C74.616 555.887 75.108 557.896 75.108 560.192ZM67.933 558.347C67.933 557.144 67.523 556.188 66.703 555.477C65.883 554.766 64.858 554.411 63.628 554.411C62.4527 554.411 61.455 554.753 60.635 555.436C59.8423 556.119 59.3503 557.09 59.159 558.347H67.933Z" fill="white"/>
</g>
<defs>
<filter id="filter0_d_2_1009" x="-4" y="24" width="166" height="640" filterUnits="userSpaceOnUse" color-interpolation-filters="sRGB">
<feFlood flood-opacity="0" result="BackgroundImageFix"/>
<feColorMatrix in="SourceAlpha" type="matrix" values="0 0 0 0 0 0 0 0 0 0 0 0 0 0 0 0 0 0 127 0" result="hardAlpha"/>
<feOffset dy="4"/>
<feGaussianBlur stdDeviation="2"/>
<feComposite in2="hardAlpha" operator="out"/>
<feColorMatrix type="matrix" values="0 0 0 0 0 0 0 0 0 0 0 0 0 0 0 0 0 0 0.25 0"/>
<feBlend mode="normal" in2="BackgroundImageFix" result="effect1_dropShadow_2_1009"/>
<feBlend mode="normal" in="SourceGraphic" in2="effect1_dropShadow_2_1009" result="shape"/>
</filter>
<filter id="filter1_d_2_1009" x="-8" y="0" width="206" height="680" filterUnits="userSpaceOnUse" color-interpolation-filters="sRGB">
<feFlood flood-opacity="0" result="BackgroundImageFix"/>
<feColorMatrix in="SourceAlpha" type="matrix" values="0 0 0 0 0 0 0 0 0 0 0 0 0 0 0 0 0 0 127 0" result="hardAlpha"/>
<feOffset dx="16"/>
<feGaussianBlur stdDeviation="12"/>
<feComposite in2="hardAlpha" operator="out"/>
<feColorMatrix type="matrix" values="0 0 0 0 0 0 0 0 0 0.639216 0 0 0 0 0.956863 0 0 0 0.2 0"/>
<feBlend mode="normal" in2="BackgroundImageFix" result="effect1_dropShadow_2_1009"/>
<feBlend mode="normal" in="SourceGraphic" in2="effect1_dropShadow_2_1009" result="shape"/>
</filter>
</defs>
</svg>