<svg xmlns="http://www.w3.org/2000/svg" width="92.891" height="16.064" viewBox="0 0 92.891 16.064">
    <g data-name="Group 95">
        <path data-name="Icon metro-star-full" d="m19.461 8.819-5.836-.848-2.61-5.288-2.609 5.288-5.836.848 4.223 4.116-1 5.812L11.016 16l5.219 2.744-1-5.812 4.223-4.116z" transform="translate(-2.571 -2.683)" style="fill:#d5b276"/>
        <path data-name="Icon metro-star-full" d="m19.461 8.819-5.836-.848-2.61-5.288-2.609 5.288-5.836.848 4.223 4.116-1 5.812L11.016 16l5.219 2.744-1-5.812 4.223-4.116z" transform="translate(16.429 -2.683)" style="fill:#d5b276"/>
        <path data-name="Icon metro-star-full" d="m19.461 8.819-5.836-.848-2.61-5.288-2.609 5.288-5.836.848 4.223 4.116-1 5.812L11.016 16l5.219 2.744-1-5.812 4.223-4.116z" transform="translate(35.429 -2.683)" style="fill:#d5b276"/>
        <path data-name="Icon metro-star-full" d="m19.461 8.819-5.836-.848-2.61-5.288-2.609 5.288-5.836.848 4.223 4.116-1 5.812L11.016 16l5.219 2.744-1-5.812 4.223-4.116z" transform="translate(54.429 -2.683)" style="fill:#d5b276"/>
        <path data-name="Icon metro-star-full" d="m19.461 8.819-5.836-.848-2.61-5.288-2.609 5.288-5.836.848 4.223 4.116-1 5.812L11.016 16l5.219 2.744-1-5.812 4.223-4.116z" transform="translate(73.429 -2.683)" style="fill:#d5b276"/>
    </g>
</svg>
