<svg width="50" height="50" viewBox="0 0 50 50" fill="none" xmlns="http://www.w3.org/2000/svg">
<path d="M16.0028 23.045C14.7714 22.6905 13.5399 22.5106 12.342 22.5106C10.4921 22.5106 8.94861 22.9333 7.75175 23.451C8.9056 19.2268 11.6775 11.9381 17.1992 11.1173C17.7105 11.0413 18.1296 10.6715 18.2691 10.1738L19.4759 5.85736C19.5777 5.49232 19.5174 5.10159 19.3091 4.7848C19.1009 4.46802 18.7663 4.25665 18.3913 4.20525C17.9838 4.14966 17.5684 4.12134 17.1567 4.12134C10.5289 4.12134 3.96502 11.0392 1.19526 20.9445C-0.430621 26.7557 -0.907371 35.4924 3.09754 40.9916C5.33863 44.0687 8.60822 45.7119 12.8156 45.876C12.8329 45.8766 12.8497 45.8771 12.867 45.8771C18.0583 45.8771 22.6616 42.3809 24.0619 37.3758C24.8985 34.3837 24.5203 31.2457 22.9962 28.5379C21.4883 25.8604 19.0049 23.9088 16.0028 23.045Z" fill="#00A3F4"/>
<path d="M48.4989 28.5384C46.991 25.8604 44.5076 23.9088 41.5055 23.045C40.2741 22.6905 39.0426 22.5106 37.8452 22.5106C35.9954 22.5106 34.4513 22.9333 33.2545 23.451C34.4083 19.2268 37.1802 11.9381 42.7024 11.1173C43.2138 11.0413 43.6323 10.6715 43.7723 10.1738L44.9791 5.85736C45.0809 5.49232 45.0206 5.10159 44.8124 4.7848C44.6047 4.46802 44.2701 4.25665 43.8945 4.20525C43.4875 4.14966 43.0721 4.12134 42.6599 4.12134C36.0321 4.12134 29.4682 11.0392 26.698 20.9445C25.0726 26.7557 24.5959 35.4924 28.6013 40.9926C30.8419 44.0692 34.112 45.7129 38.3188 45.8766C38.3361 45.8771 38.3529 45.8776 38.3707 45.8776C43.5615 45.8776 48.1653 42.3814 49.5657 37.3764C50.4012 34.3842 50.0225 31.2457 48.4989 28.5384Z" fill="#00A3F4"/>
</svg>