<svg width="24" height="24" viewBox="0 0 24 24" fill="none" xmlns="http://www.w3.org/2000/svg">
<path d="M4.69346 4.15174C4.92513 4.28211 6.48453 5.03548 7.2379 5.39824C7.24084 5.69065 7.24731 6.19631 7.25724 6.2049C7.34028 6.92898 7.48281 7.73341 7.52409 7.96058C7.4556 7.99855 7.10354 8.22877 7.10354 8.94484C7.10385 8.94887 7.10421 8.9526 7.10452 8.95669C7.10401 8.97546 7.10354 8.9944 7.10354 9.01385C7.25507 11.0042 8.04662 10.1464 8.20984 11.0182C8.48135 12.4677 9.76479 13.5164 10.5637 13.8784C11.0254 14.0876 11.5006 14.1943 12 14.2045C12.4994 14.1943 12.9746 14.0876 13.4363 13.8784C14.2352 13.5164 15.5187 12.4676 15.7902 11.0182C15.9534 10.1463 16.7449 11.0042 16.8965 9.01385C16.8965 8.99435 16.896 8.97546 16.8955 8.95669C16.8958 8.95265 16.8962 8.94893 16.8965 8.94484C16.8965 8.22872 16.5444 7.99855 16.4759 7.96058C16.5173 7.73341 16.6598 6.92903 16.7428 6.2049C16.7526 6.19631 16.7592 5.6907 16.7621 5.39824C17.1759 5.19896 17.8326 4.88198 18.3791 4.61503V6.539C18.2274 6.62861 18.1206 6.78676 18.1206 6.97534C18.1206 7.14228 18.2054 7.28373 18.3289 7.37721C18.3289 7.37721 18.1093 8.61135 18.0383 8.97433C17.9673 9.3372 19.2904 9.26441 19.2308 8.97433C19.1713 8.68414 18.9404 7.37721 18.9404 7.37721C19.064 7.28373 19.1487 7.14228 19.1487 6.97534C19.1487 6.78671 19.0424 6.62866 18.8907 6.539V4.36365C19.0944 4.26261 19.246 4.18578 19.3065 4.15174C19.4704 4.0595 19.5587 3.94149 19.5401 3.81888C19.5625 3.69104 19.47 3.55363 19.222 3.43216C17.4514 2.56549 12.9377 0.356558 12.4913 0.143668C12.2966 0.0508038 12.1363 0.00977793 12 0C11.8637 0.00977793 11.7034 0.0508038 11.5087 0.143668C11.0624 0.356558 6.54858 2.56554 4.7781 3.43216C4.52993 3.55363 4.43753 3.69104 4.45998 3.81888C4.44125 3.94149 4.52956 4.0595 4.69346 4.15174Z" fill="#00A3F4"/>
<path d="M18.0092 16.6009C17.1762 16.3006 15.7263 15.4348 15.4779 15.3012C15.4136 15.2638 15.339 15.2419 15.2591 15.2419C15.0848 15.2419 14.9348 15.3442 14.865 15.4922C14.1782 16.6419 12.9049 19.9852 12.0165 20.0473C12.0111 20.0468 12.0055 20.0458 12 20.0451C11.9945 20.0458 11.989 20.0468 11.9835 20.0473C11.0951 19.9852 9.82188 16.6419 9.1351 15.4922C9.0652 15.3442 8.91522 15.2419 8.74093 15.2419C8.66105 15.2419 8.5865 15.2638 8.52209 15.3012C8.27371 15.4348 6.82383 16.3006 5.9909 16.6009C3.19503 17.609 1.93756 18.6372 1.93756 19.3382C1.93756 19.3586 1.93756 19.3818 1.93756 19.4072C1.93756 20.2611 1.93756 23.9309 1.93756 23.9309C1.93756 23.9756 1.93756 23.9999 1.93756 23.9999H11.9835H12H12.0165H22.0625C22.0625 23.9999 22.0625 23.9756 22.0625 23.9309C22.0625 23.9309 22.0625 20.261 22.0625 19.4072C22.0625 19.3818 22.0625 19.3586 22.0625 19.3382C22.0624 18.6372 20.805 17.609 18.0092 16.6009Z" fill="#00A3F4"/>
</svg>
